<svg width="120" height="120" viewBox="0 0 120 120" fill="none" xmlns="http://www.w3.org/2000/svg">
<g clip-path="url(#clip0_168_1998)">
<path d="M116.576 16.3752C114.811 14.6069 111.947 14.6038 110.181 16.3677L55.9252 70.4807L36.3497 49.2198C34.6583 47.3837 31.7984 47.2647 29.9593 48.9559C28.1215 50.6474 28.0039 53.5087 29.6954 55.3464L52.4593 80.0685C53.2929 80.9746 54.4597 81.5008 55.6899 81.5263C55.7229 81.5277 55.7548 81.5277 55.7865 81.5277C56.982 81.5277 58.1321 81.0529 58.9794 80.2087L116.567 22.7716C118.337 21.0079 118.34 18.1436 116.576 16.3752Z" fill="#CDFF3A"/>
<path d="M115.477 55.4773C112.979 55.4773 110.955 57.5018 110.955 60C110.955 88.0976 88.0976 110.955 60 110.955C31.9041 110.955 9.04523 88.0976 9.04523 60C9.04523 31.9041 31.9041 9.04523 60 9.04523C62.498 9.04523 64.5227 7.0207 64.5227 4.52273C64.5227 2.02453 62.498 0 60 0C26.9156 0 0 26.9156 0 60C0 93.083 26.9156 120 60 120C93.083 120 120 93.083 120 60C120 57.502 117.975 55.4773 115.477 55.4773Z" fill="#CDFF3A"/>
</g>
<defs>
<clipPath id="clip0_168_1998">
<rect width="120" height="120" fill="white"/>
</clipPath>
</defs>
</svg>
