<svg width="20" height="20" viewBox="0 0 20 20" fill="none" xmlns="http://www.w3.org/2000/svg">
<path d="M14.0041 6.50037V11.5022C14.0041 12.2982 13.6879 13.0615 13.1251 13.6243C12.5623 14.1872 11.7989 14.5033 11.003 14.5033H6.00112C5.20517 14.5033 4.44183 14.1872 3.87901 13.6243C3.31619 13.0615 3 12.2982 3 11.5022V6.50037C3 6.23506 3.1054 5.98061 3.293 5.793C3.48061 5.6054 3.73506 5.5 4.00037 5.5H13.0037C13.269 5.5 13.5235 5.6054 13.7111 5.793C13.8987 5.98061 14.0041 6.23506 14.0041 6.50037ZM14.0041 6.50037H16.0048C16.2702 6.50037 16.5246 6.60577 16.7122 6.79337C16.8998 6.98098 17.0052 7.23543 17.0052 7.50074V9.50149C17.0052 9.7668 16.8998 10.0213 16.7122 10.2089C16.5246 10.3965 16.2702 10.5019 16.0048 10.5019H14.0041" stroke="#717171" stroke-width="1.5"/>
</svg>
