<svg width="20" height="20" viewBox="0 0 20 20" fill="none" xmlns="http://www.w3.org/2000/svg">
<path d="M11.0303 13.5078H8.98054C8.87711 13.5078 8.77734 13.4696 8.70031 13.4005C8.62328 13.3315 8.5744 13.2365 8.56303 13.1337L7.95568 7.66967C7.94918 7.61095 7.95513 7.55153 7.97314 7.49526C7.99116 7.439 8.02083 7.38717 8.06023 7.34315C8.09962 7.29913 8.14786 7.2639 8.20178 7.23978C8.2557 7.21565 8.31411 7.20316 8.37319 7.20312H11.6376C11.6967 7.20316 11.7551 7.21565 11.809 7.23978C11.8629 7.2639 11.9112 7.29913 11.9506 7.34315C11.99 7.38717 12.0196 7.439 12.0377 7.49526C12.0557 7.55153 12.0616 7.61095 12.0551 7.66967L11.4478 13.1337C11.4364 13.2365 11.3875 13.3315 11.3105 13.4005C11.2335 13.4696 11.1337 13.5078 11.0303 13.5078Z" stroke="#717171" stroke-width="1.4" stroke-linecap="round"/>
<path d="M4.7513 6.5026C5.21578 6.5026 5.66123 6.31809 5.98966 5.98966C6.31809 5.66123 6.5026 5.21578 6.5026 4.7513C6.5026 4.28683 6.31809 3.84138 5.98966 3.51294C5.66123 3.18451 5.21578 3 4.7513 3C4.28683 3 3.84138 3.18451 3.51294 3.51294C3.18451 3.84138 3 4.28683 3 4.7513C3 5.21578 3.18451 5.66123 3.51294 5.98966C3.84138 6.31809 4.28683 6.5026 4.7513 6.5026Z" stroke="#717171" stroke-width="1.4" stroke-miterlimit="1.5" stroke-linecap="round" stroke-linejoin="round"/>
<path d="M4.75 4.75L7.90234 7.20182M4.75 15.2578L8.2526 12.4557M15.2578 4.75L12.1055 7.20182M15.2578 15.2578L11.7552 12.4557" stroke="#717171" stroke-width="1.4" stroke-linecap="round" stroke-linejoin="round"/>
<path d="M4.7513 17.0104C5.21578 17.0104 5.66123 16.8259 5.98966 16.4975C6.31809 16.169 6.5026 15.7236 6.5026 15.2591C6.5026 14.7946 6.31809 14.3492 5.98966 14.0208C5.66123 13.6923 5.21578 13.5078 4.7513 13.5078C4.28683 13.5078 3.84138 13.6923 3.51294 14.0208C3.18451 14.3492 3 14.7946 3 15.2591C3 15.7236 3.18451 16.169 3.51294 16.4975C3.84138 16.8259 4.28683 17.0104 4.7513 17.0104ZM15.2591 6.5026C15.7236 6.5026 16.169 6.31809 16.4975 5.98966C16.8259 5.66123 17.0104 5.21578 17.0104 4.7513C17.0104 4.28683 16.8259 3.84138 16.4975 3.51294C16.169 3.18451 15.7236 3 15.2591 3C14.7946 3 14.3492 3.18451 14.0208 3.51294C13.6923 3.84138 13.5078 4.28683 13.5078 4.7513C13.5078 5.21578 13.6923 5.66123 14.0208 5.98966C14.3492 6.31809 14.7946 6.5026 15.2591 6.5026ZM15.2591 17.0104C15.7236 17.0104 16.169 16.8259 16.4975 16.4975C16.8259 16.169 17.0104 15.7236 17.0104 15.2591C17.0104 14.7946 16.8259 14.3492 16.4975 14.0208C16.169 13.6923 15.7236 13.5078 15.2591 13.5078C14.7946 13.5078 14.3492 13.6923 14.0208 14.0208C13.6923 14.3492 13.5078 14.7946 13.5078 15.2591C13.5078 15.7236 13.6923 16.169 14.0208 16.4975C14.3492 16.8259 14.7946 17.0104 15.2591 17.0104Z" stroke="#717171" stroke-width="1.4" stroke-miterlimit="1.5" stroke-linecap="round" stroke-linejoin="round"/>
</svg>
