<svg width="10" height="20" viewBox="0 0 10 20" fill="none" xmlns="http://www.w3.org/2000/svg">
  <path d="M3.04046 7.6547H2.79046H0.377375C0.307093 7.6547 0.25 7.71165 0.25 7.78226V10.8249C0.25 10.8953 0.307036 10.9523 0.377375 10.9523H2.79046H3.04046V11.2023V18.88C3.04046 18.9504 3.09738 19.0073 3.16783 19.0073H6.31621C6.38658 19.0073 6.44359 18.9503 6.44359 18.88V11.2023V10.9523H6.69359H9.51504C9.58549 10.9523 9.64242 10.8954 9.64242 10.8249V10.8248L9.64357 7.78226L3.04046 7.6547ZM3.04046 7.6547V7.4047M3.04046 7.6547V7.4047M3.04046 7.4047V5.30468C3.04046 3.97417 3.45848 2.90225 4.17777 2.16422C4.89638 1.42686 5.93774 1.00004 7.22904 1C7.2291 1 7.22917 1 7.22923 1L9.62876 1.00385C9.62878 1.00385 9.6288 1.00385 9.62882 1.00385C9.69914 1.00401 9.75602 1.06111 9.75602 1.13123V3.95653C9.75602 4.02695 9.69892 4.08391 9.62883 4.08391H9.62874L8.01209 4.08448C8.01206 4.08448 8.01203 4.08448 8.012 4.08448C7.43512 4.08449 7.01124 4.19437 6.74745 4.49316C6.49022 4.78452 6.44359 5.19399 6.44359 5.62449V7.4047V7.6547M3.04046 7.4047L6.44359 7.6547M6.44359 7.6547H6.69359M6.44359 7.6547H6.69359M6.69359 7.6547H9.51601C9.54989 7.6547 9.58241 7.66825 9.60604 7.69194C9.63019 7.71616 9.64355 7.74862 9.64357 7.78217L6.69359 7.6547Z" fill="white" stroke="#008BFF" stroke-width="0.5"/>
</svg>
