<svg width="20" height="20" viewBox="0 0 20 20" fill="none" xmlns="http://www.w3.org/2000/svg">
<path d="M4.9974 9.16406H8.33073M6.66406 7.4974V10.8307M12.4974 9.9974H12.5057M14.9974 8.33073H15.0057M14.4307 4.16406H5.56406C4.7393 4.16425 3.94388 4.47021 3.33159 5.02278C2.7193 5.57536 2.3336 6.33531 2.24906 7.15573C2.24406 7.19906 2.24073 7.2399 2.2349 7.2824C2.1674 7.84406 1.66406 12.0441 1.66406 13.3307C1.66406 13.9938 1.92745 14.6297 2.3963 15.0985C2.86514 15.5673 3.50102 15.8307 4.16406 15.8307C4.9974 15.8307 5.41406 15.4141 5.83073 14.9974L7.00906 13.8191C7.32155 13.5065 7.7454 13.3308 8.1874 13.3307H11.8074C12.2494 13.3308 12.6732 13.5065 12.9857 13.8191L14.1641 14.9974C14.5807 15.4141 14.9974 15.8307 15.8307 15.8307C16.4938 15.8307 17.1297 15.5673 17.5985 15.0985C18.0673 14.6297 18.3307 13.9938 18.3307 13.3307C18.3307 12.0432 17.8274 7.84406 17.7599 7.2824C17.7541 7.24073 17.7507 7.19906 17.7457 7.15656C17.6614 6.33599 17.2758 5.57584 16.6635 5.02309C16.0511 4.47035 15.2556 4.16428 14.4307 4.16406Z" stroke="#717171" stroke-width="1.5" stroke-linecap="round" stroke-linejoin="round"/>
</svg>
