<svg width="18" height="19" viewBox="0 0 18 19" fill="none" xmlns="http://www.w3.org/2000/svg">
  <path d="M18 8.97643H9.6V11.7764H14.7248C13.9603 14.2107 11.6866 15.9764 8.99993 15.9764C5.68617 15.9764 2.99999 13.2901 2.99999 9.97644C2.99999 6.66268 5.68626 3.97651 8.99993 3.97651C10.6686 3.97651 12.1779 4.65789 13.2655 5.75737L15.2979 3.5482C13.6747 1.95764 11.4521 0.976563 8.99993 0.976563C4.02943 0.976515 0 5.00594 0 9.97644C0 14.9469 4.02943 18.9765 8.99998 18.9765C13.354 18.9765 17.166 15.8843 18 11.7765V8.97648L18 8.97643Z" fill="white"/>
</svg>
