<svg width="20" height="20" viewBox="0 0 20 20" fill="none" xmlns="http://www.w3.org/2000/svg">
<path d="M12.1584 3V9.45845L16.0227 14.3776C16.2109 14.6158 16.3281 14.9023 16.361 15.2041C16.3938 15.5059 16.3409 15.8109 16.2083 16.084C16.0756 16.3571 15.8687 16.5873 15.6112 16.7481C15.3537 16.9089 15.0561 16.9939 14.7525 16.9933H5.25857C4.95498 16.9939 4.65735 16.9089 4.39986 16.7481C4.14236 16.5873 3.93543 16.3571 3.80281 16.084C3.6702 15.8109 3.61726 15.5059 3.65009 15.2041C3.68292 14.9023 3.80018 14.6158 3.98841 14.3776L7.85272 9.45845V3M6.23811 3H13.773" stroke="#717171" stroke-width="1.5" stroke-linecap="round" stroke-linejoin="round"/>
</svg>
