<svg width="20" height="20" viewBox="0 0 20 20" fill="none" xmlns="http://www.w3.org/2000/svg">
<path d="M16.1888 12.3904V4.75707C16.1888 4.50448 16.0885 4.26224 15.9099 4.08363C15.7313 3.90503 15.489 3.80469 15.2364 3.80469H4.76025C4.50766 3.80469 4.26542 3.90503 4.08682 4.08363C3.90821 4.26224 3.80787 4.50448 3.80787 4.75707V12.3904M16.1888 12.3904H3.80787M16.1888 12.3904L17.4041 14.8218C17.4766 14.967 17.5108 15.1283 17.5035 15.2904C17.4962 15.4525 17.4476 15.6101 17.3623 15.7481C17.277 15.8862 17.1579 16.0001 17.0162 16.0792C16.8745 16.1583 16.7149 16.1998 16.5526 16.1999H3.44406C3.28178 16.1998 3.12222 16.1583 2.98051 16.0792C2.8388 16.0001 2.71964 15.8862 2.63435 15.7481C2.54906 15.6101 2.50045 15.4525 2.49315 15.2904C2.48585 15.1283 2.52009 14.967 2.59263 14.8218L3.80787 12.3904" stroke="#717171" stroke-width="1.5" stroke-linecap="round" stroke-linejoin="round"/>
</svg>
