<svg width="20" height="20" viewBox="0 0 20 20" fill="none" xmlns="http://www.w3.org/2000/svg">
<path d="M14.8109 3H5.0051C4.61827 3 4.30469 3.31359 4.30469 3.70041V16.3079C4.30469 16.6947 4.61827 17.0083 5.0051 17.0083H14.8109C15.1977 17.0083 15.5113 16.6947 15.5113 16.3079V3.70041C15.5113 3.31359 15.1977 3 14.8109 3Z" stroke="#717171" stroke-width="1.5"/>
<path d="M4.30469 7.02344H15.5113" stroke="#717171" stroke-width="1.5" stroke-linecap="round" stroke-linejoin="round"/>
<path d="M13.4114 5.79945C13.7983 5.79945 14.1119 5.48582 14.1119 5.09894C14.1119 4.71206 13.7983 4.39844 13.4114 4.39844C13.0246 4.39844 12.7109 4.71206 12.7109 5.09894C12.7109 5.48582 13.0246 5.79945 13.4114 5.79945Z" fill="#717171"/>
<path d="M9.90489 14.5598C11.259 14.5598 12.3567 13.4621 12.3567 12.108C12.3567 10.7539 11.259 9.65625 9.90489 9.65625C8.55082 9.65625 7.45312 10.7539 7.45312 12.108C7.45312 13.4621 8.55082 14.5598 9.90489 14.5598Z" stroke="#717171" stroke-width="1.5"/>
</svg>
