<svg width="20" height="20" viewBox="0 0 20 20" fill="none" xmlns="http://www.w3.org/2000/svg">
<path d="M6.90373 6.54051L6.35384 5.99062M9.20673 16.3732L3.53051 10.697C3.24273 10.4092 3.0794 10.0203 3.07396 9.61428L3.00007 3.78951C2.99871 3.68546 3.0182 3.5822 3.05739 3.4858C3.09658 3.38941 3.15468 3.30184 3.22826 3.22826C3.30184 3.15468 3.38941 3.09658 3.4858 3.05739C3.5822 3.0182 3.68546 2.99871 3.78951 3.00007L9.61428 3.07396C10.0209 3.07916 10.4094 3.24299 10.697 3.53051L16.3732 9.20673C16.8974 9.73017 17.3003 10.7304 16.7029 11.3277L11.3285 16.7022C10.7304 17.3003 9.73017 16.8966 9.20673 16.3732Z" stroke="#BB2A54" stroke-width="1.5" stroke-linecap="round" stroke-linejoin="round"/>
</svg>
