<svg width="20" height="20" viewBox="0 0 20 20" fill="none" xmlns="http://www.w3.org/2000/svg">
<path d="M12.8063 8.75175H9.99339L9.58444 9.15159C9.20102 9.52857 8.71689 9.7868 8.19024 9.89526L7.42277 10.0521L5.76737 14.6003C5.73592 14.6867 5.68775 14.7661 5.62562 14.8339C5.56348 14.9017 5.4886 14.9567 5.40524 14.9955C5.32188 15.0344 5.23167 15.0565 5.13978 15.0605C5.04788 15.0646 4.95609 15.0505 4.86965 15.019C4.78321 14.9876 4.70381 14.9394 4.63598 14.8772C4.56816 14.8151 4.51324 14.7402 4.47435 14.6569C4.43547 14.5735 4.41338 14.4833 4.40936 14.3914C4.40533 14.2995 4.41945 14.2077 4.4509 14.1213L6.08459 9.63477L5.52929 9.01014C5.04603 8.46732 4.79268 7.75792 4.82274 7.03178C4.8528 6.30564 5.16392 5.6196 5.69039 5.11859C6.21686 4.61757 6.91745 4.34079 7.64419 4.34672C8.37093 4.35265 9.06692 4.64081 9.58514 5.15035L9.99409 5.5502H12.8063V8.75175ZM14.2068 8.75175V5.5502H15.6073V8.75175H14.2068ZM10.5655 10.1523H15.6073C15.9787 10.1523 16.335 10.0047 16.5976 9.74205C16.8603 9.47941 17.0078 9.12318 17.0078 8.75175V5.5502C17.0078 5.17876 16.8603 4.82254 16.5976 4.55989C16.335 4.29725 15.9787 4.14969 15.6073 4.14969H10.5655C9.78793 3.38579 8.74393 2.95398 7.65394 2.94544C6.56395 2.9369 5.51331 3.35231 4.72387 4.10393C3.93444 4.85556 3.46801 5.88457 3.42309 6.97366C3.37816 8.06276 3.75826 9.12669 4.48311 9.94078L3.13513 13.6423C3.03824 13.9021 2.99374 14.1785 3.00419 14.4556C3.01465 14.7327 3.07985 15.0049 3.19604 15.2567C3.31222 15.5084 3.4771 15.7347 3.68116 15.9224C3.88522 16.1101 4.12442 16.2556 4.38497 16.3504C4.64552 16.4453 4.92227 16.4876 5.19926 16.4749C5.47624 16.4623 5.74798 16.3949 5.99881 16.2768C6.24964 16.1586 6.47459 15.9919 6.6607 15.7864C6.8468 15.5809 6.99038 15.3405 7.08315 15.0792L8.47104 11.2671C9.26173 11.1048 9.98875 10.7177 10.5648 10.1523H10.5655ZM8.60479 6.45072H6.50404C6.31832 6.45072 6.14021 6.5245 6.00888 6.65582C5.87756 6.78714 5.80379 6.96525 5.80379 7.15097C5.80379 7.33669 5.87756 7.5148 6.00888 7.64612C6.14021 7.77745 6.31832 7.85122 6.50404 7.85122H8.60479C8.79051 7.85122 8.96862 7.77745 9.09994 7.64612C9.23127 7.5148 9.30504 7.33669 9.30504 7.15097C9.30504 6.96525 9.23127 6.78714 9.09994 6.65582C8.96862 6.5245 8.79051 6.45072 8.60479 6.45072Z" fill="#717171"/>
</svg>
