<svg width="20" height="20" viewBox="0 0 20 20" fill="none" xmlns="http://www.w3.org/2000/svg">
<path d="M11.6016 3.99219H3.71969C3.49971 3.99216 3.28208 4.03748 3.0804 4.12531C2.87871 4.21315 2.6973 4.34162 2.54749 4.5027C2.39767 4.66378 2.28267 4.85401 2.20966 5.06152C2.13665 5.26903 2.1072 5.48937 2.12315 5.70877L2.35682 8.90986C2.38615 9.31323 2.56709 9.69055 2.86328 9.96595C3.15946 10.2414 3.54893 10.3944 3.95337 10.3944H11.6016V3.99219Z" stroke="#717171" stroke-width="1.5" stroke-linejoin="round"/>
<path d="M7.56181 10.3971H3.9966L5.63276 14.8962C5.75022 15.2194 5.9643 15.4985 6.24592 15.6958C6.52753 15.8931 6.86305 15.999 7.20689 15.999C8.36929 15.999 9.17836 14.8438 8.78103 13.7514L7.56181 10.3971ZM14 5.19531H11.5992V9.19667H14V5.19531Z" stroke="#717171" stroke-width="1.5" stroke-linejoin="round"/>
<path d="M13.9986 7.19531H18" stroke="#717171" stroke-width="1.5" stroke-linecap="round" stroke-linejoin="round"/>
</svg>
