<svg width="20" height="20" viewBox="0 0 20 20" fill="none" xmlns="http://www.w3.org/2000/svg">
<path d="M10 13.3359H15.8333C16.2754 13.3359 16.6993 13.1603 17.0118 12.8478C17.3244 12.5352 17.5 12.1113 17.5 11.6693V5.0026C17.5 4.56058 17.3244 4.13665 17.0118 3.82409C16.6993 3.51153 16.2754 3.33594 15.8333 3.33594H4.16667C3.72464 3.33594 3.30072 3.51153 2.98816 3.82409C2.67559 4.13665 2.5 4.56058 2.5 5.0026V11.6693C2.5 12.1113 2.67559 12.5352 2.98816 12.8478C3.30072 13.1603 3.72464 13.3359 4.16667 13.3359H10ZM10 13.3359V16.6693M10 16.6693H13.3333M10 16.6693H6.66667" stroke="#717171" stroke-width="1.5" stroke-linecap="round" stroke-linejoin="round"/>
</svg>
